<?xml version="1.0" encoding="utf-8"?>
<!-- Generator: Adobe Illustrator 25.4.1, SVG Export Plug-In . SVG Version: 6.00 Build 0)  -->
<svg version="1.1" xmlns="http://www.w3.org/2000/svg" xmlns:xlink="http://www.w3.org/1999/xlink" x="0px" y="0px"
	 viewBox="0 0 500 500" style="enable-background:new 0 0 500 500;" xml:space="preserve">
<style type="text/css">
	.st0{fill:url(#SVGID_1_);}
	.st1{fill:none;stroke:url(#SVGID_00000138534246180386183370000015379381327192344478_);stroke-width:4;stroke-miterlimit:10;}
	.st2{fill:url(#SVGID_00000128473625792170817640000005007292661103997367_);}
	.st3{opacity:0.3;fill:#FFFFFF;}
	.st4{opacity:0.5;fill:url(#SVGID_00000175313121446706039740000006940543184249750203_);}
	.st5{fill:url(#SVGID_00000132079405156721180130000006596035082077014159_);}
	.st6{opacity:0.3;fill:url(#SVGID_00000171689237807473973100000015466072871727638711_);}
	.st7{fill:url(#SVGID_00000049199817993112216310000009620934803094310297_);}
	.st8{fill:url(#SVGID_00000066476834807305897070000012486181151682391954_);}
	.st9{opacity:0.3;fill:url(#SVGID_00000142883021830831829890000004875766355781234604_);}
	.st10{fill:url(#SVGID_00000121969828012457809580000007617348794336053430_);}
	.st11{opacity:0.3;fill:url(#SVGID_00000176034107961533176720000000149499851267016322_);}
	.st12{fill:url(#SVGID_00000099630941845236755660000001306636802234277566_);}
	.st13{opacity:0.3;fill:url(#SVGID_00000124843639582620182850000010919092485998277298_);}
	.st14{fill:url(#SVGID_00000009570213386195423420000001717260753817386172_);}
	.st15{fill:url(#SVGID_00000124868566501436627200000016781362451994463113_);}
	.st16{fill:url(#SVGID_00000043456784796482078010000012599127516296192435_);}
	.st17{fill:url(#SVGID_00000003105795377765082190000016468644627758961087_);}
	.st18{fill:url(#SVGID_00000033329871490255761980000015806778585893197976_);}
	.st19{fill:url(#SVGID_00000154392286810492800420000010646203005761477780_);}
	.st20{fill:url(#SVGID_00000141424515289950116080000012150044742677065370_);}
	.st21{fill:url(#SVGID_00000037680246978445285090000005181323462939446913_);}
	.st22{fill:url(#SVGID_00000083048530905416789000000013648537368610414985_);}
</style>
<g id="BACKGROUND">
	<linearGradient id="SVGID_1_" gradientUnits="userSpaceOnUse" x1="0" y1="250" x2="500" y2="250">
		<stop  offset="0" style="stop-color:#FFB917"/>
		<stop  offset="0.8559" style="stop-color:#FF7903"/>
		<stop  offset="1" style="stop-color:#FF6E00"/>
	</linearGradient>
	<rect class="st0" width="500" height="500"/>
</g>
<g id="OBJECTS">
	<g>
		
			<linearGradient id="SVGID_00000041975542632103881580000011660602295519279503_" gradientUnits="userSpaceOnUse" x1="279.8081" y1="74.6238" x2="279.8081" y2="429.164">
			<stop  offset="0" style="stop-color:#FFB917"/>
			<stop  offset="0.8559" style="stop-color:#FF7903"/>
			<stop  offset="1" style="stop-color:#FF6E00"/>
		</linearGradient>
		
			<path style="fill:none;stroke:url(#SVGID_00000041975542632103881580000011660602295519279503_);stroke-width:4;stroke-miterlimit:10;" d="
			M455.1,251.9c0,12.5-1.3,24.6-3.8,36.4c-4.1,19.5-11.4,37.8-21.5,54.3c-30.7,50.7-86.4,84.6-150,84.6c-15.1,0-29.8-1.9-43.8-5.5
			c-7.1-1.8-13.9-4.1-20.6-6.7c-19.4-7.7-37.2-18.7-52.5-32.5c-12.9-11.6-24.2-25.1-33.2-40c-16-26.4-25.2-57.4-25.2-90.5
			c0-2.3,0-4.7,0.1-7c3.7-93.6,80.7-168.3,175.1-168.3c92.5,0,168.3,71.7,174.8,162.5C454.9,243.4,455.1,247.6,455.1,251.9z"/>
		<g>
			
				<linearGradient id="SVGID_00000175292814271785274960000001634217793947398784_" gradientUnits="userSpaceOnUse" x1="279.8084" y1="131.8355" x2="279.8084" y2="385.7966">
				<stop  offset="0" style="stop-color:#FFB917"/>
				<stop  offset="0.8559" style="stop-color:#FF7903"/>
				<stop  offset="1" style="stop-color:#FF6E00"/>
			</linearGradient>
			<path style="fill:url(#SVGID_00000175292814271785274960000001634217793947398784_);" d="M429.3,251.9c0,10.6-1.1,21-3.2,31
				c-3.5,16.6-9.8,32.2-18.3,46.3c-26.2,43.3-73.7,72.2-128,72.2c-12.9,0-25.4-1.6-37.4-4.7c-6-1.5-11.9-3.5-17.6-5.7
				c-16.6-6.6-31.7-16-44.8-27.7c-11-9.9-20.6-21.4-28.3-34.2c-13.6-22.5-21.5-49-21.5-77.2c0-2,0-4,0.1-6
				c0.3-7.2,1.1-14.3,2.3-21.2c12.8-69.6,73.7-122.4,147-122.4c73.2,0,134.1,52.6,147,122c1,5.4,1.7,11,2.1,16.6
				C429.2,244.6,429.3,248.2,429.3,251.9z"/>
			<path class="st3" d="M428.9,241c-0.4-5.6-1.1-11.2-2.1-16.6c-12.9-69.4-73.8-122-147-122c-73.3,0-134.3,52.7-147.1,122.4
				c-1.3,6.9-2.1,14-2.3,21.2c-0.1,2-0.1,3.9-0.1,5.9c0,28.3,7.8,54.7,21.4,77.2c7.7,12.7,17.3,24.3,28.3,34.1
				c13.1,11.7,28.2,21.1,44.8,27.7c5.7,2.3,11.6,4.2,17.6,5.7c11.9,3.1,24.4,4.7,37.4,4.7c54.3,0,101.8-28.9,128-72.2
				c8.5-14.1,14.8-29.7,18.3-46.3c2.1-10,3.2-20.4,3.2-31C429.3,248.3,429.2,244.6,428.9,241z M419.1,281.4
				c-3.3,15.6-9.2,30.4-17.4,44.1c-26.1,43.1-71.6,68.7-121.9,68.7c-12.1,0-24-1.5-35.6-4.5c-5.7-1.5-11.3-3.3-16.7-5.4
				c-15.7-6.2-30-15.1-42.6-26.4c-10.6-9.5-19.7-20.4-27-32.5c-13.4-22.1-20.4-47.6-20.4-73.6c0-1.9,0-3.8,0.1-5.6
				c0.3-6.8,1-13.6,2.2-20.2c12.4-67.5,71.3-116.5,140-116.5c68.6,0,127.4,48.9,139.9,116.2c1,5.2,1.7,10.5,2,15.8
				c0.2,3.5,0.4,6.9,0.4,10.4C422.2,261.9,421.1,271.8,419.1,281.4z"/>
			
				<linearGradient id="SVGID_00000054964663662251194240000009628788651144379062_" gradientUnits="userSpaceOnUse" x1="279.8084" y1="231.6875" x2="279.8084" y2="391.975">
				<stop  offset="0" style="stop-color:#FFB917"/>
				<stop  offset="0.8559" style="stop-color:#FF7903"/>
				<stop  offset="1" style="stop-color:#FF6E00"/>
			</linearGradient>
			<path style="opacity:0.5;fill:url(#SVGID_00000054964663662251194240000009628788651144379062_);" d="M429.3,251.9
				c0,10.6-1.1,21-3.2,31c-3.5,16.6-9.8,32.2-18.3,46.3c-26.2,43.3-73.7,72.2-128,72.2c-12.9,0-25.4-1.6-37.4-4.7
				c-6-1.5-11.9-3.5-17.6-5.7c-16.6-6.6-31.7-16-44.8-27.7c-11-9.9-20.6-21.4-28.3-34.2c-13.6-22.5-21.5-49-21.5-77.2c0-2,0-4,0.1-6
				c0.3-7.2,1.1-14.3,2.3-21.2c40.8-3.5,77.3-1.4,109.6,4.2c14,2.5,27.2,5.6,39.7,9.3c40.1-11.8,88.2-18.1,144.8-13.8
				c1,5.4,1.7,11,2.1,16.6C429.2,244.6,429.3,248.2,429.3,251.9z"/>
			
				<linearGradient id="SVGID_00000023251637842592240350000011326992168444843403_" gradientUnits="userSpaceOnUse" x1="269.0744" y1="253.5188" x2="269.0744" y2="392.8404">
				<stop  offset="0" style="stop-color:#7BC5FF"/>
				<stop  offset="0.3918" style="stop-color:#4D85FF"/>
				<stop  offset="1" style="stop-color:#001AFF"/>
			</linearGradient>
			<path style="fill:url(#SVGID_00000023251637842592240350000011326992168444843403_);" d="M407.8,329.1
				c-26.2,43.3-73.7,72.3-128,72.3c-40.1,0-76.4-15.8-103.3-41.4c-4.4-4.2-8.5-8.6-12.4-13.3c-1.7-2.1-3.3-4.2-4.9-6.3
				c-5.2-7-9.7-14.5-13.6-22.3c-3.4-6.8-6.2-13.9-8.5-21.2c-2.3-7.2-4-14.7-5.2-22.3c-0.8-5.2-1.3-10.5-1.5-15.8
				c-0.1-2.3-0.2-4.5-0.2-6.8c0-3.7,0.1-7.3,0.4-10.9c43.5-5.7,81.7-4.3,114.8,1.5c16.7,2.9,32.1,7,46.3,11.8
				c9.7,3.3,18.9,6.9,27.5,10.9C362.8,285,391.7,311.3,407.8,329.1z"/>
			
				<linearGradient id="SVGID_00000013913242982895011580000012753715559927587762_" gradientUnits="userSpaceOnUse" x1="132.0024" y1="311.249" x2="285.6905" y2="311.249">
				<stop  offset="0" style="stop-color:#7BC5FF"/>
				<stop  offset="0.3918" style="stop-color:#4D85FF"/>
				<stop  offset="1" style="stop-color:#001AFF"/>
			</linearGradient>
			<path style="opacity:0.3;fill:url(#SVGID_00000013913242982895011580000012753715559927587762_);" d="M285.7,270.9L176.5,360
				c-6.3-6-12.1-12.6-17.3-19.6c-5.2-7-9.7-14.5-13.6-22.3c-6.7-13.5-11.3-28.1-13.7-43.5C160.9,267.6,233.6,253.4,285.7,270.9z"/>
			
				<linearGradient id="SVGID_00000016755170665375248220000015929758641184196741_" gradientUnits="userSpaceOnUse" x1="187.8113" y1="269.5208" x2="206.4007" y2="366.7162">
				<stop  offset="0" style="stop-color:#7BC5FF"/>
				<stop  offset="0.3918" style="stop-color:#4D85FF"/>
				<stop  offset="1" style="stop-color:#001AFF"/>
			</linearGradient>
			<path style="fill:url(#SVGID_00000016755170665375248220000015929758641184196741_);" d="M245,276.6l-11.6,45.7
				c0,0-44.5,16-69.3,24.4c-1.7-2.1-3.3-4.2-4.9-6.3c-5.2-7-9.7-14.5-13.6-22.3c-3.4-6.8-6.2-13.9-8.5-21.2
				C155.3,289.4,200.7,273.3,245,276.6z"/>
			<path class="st3" d="M291.7,254.3l-1.8,6.3c0,0-75.5-24.3-159.5-1.8c-0.1-2.3-0.2-4.5-0.2-6.8c0-3.7,0.1-7.3,0.4-10.9
				c43.5-5.7,81.7-4.3,114.8,1.5C262.2,245.4,277.6,249.4,291.7,254.3z"/>
			
				<linearGradient id="SVGID_00000068640488021345553920000009068713326218124446_" gradientUnits="userSpaceOnUse" x1="290.5422" y1="245.3026" x2="290.5422" y2="392.7312">
				<stop  offset="0" style="stop-color:#7BC5FF"/>
				<stop  offset="0.3918" style="stop-color:#4D85FF"/>
				<stop  offset="1" style="stop-color:#001AFF"/>
			</linearGradient>
			<path style="fill:url(#SVGID_00000068640488021345553920000009068713326218124446_);" d="M429.3,251.9c0,1.9,0,3.7-0.1,5.5
				c-0.1,4-0.5,8-0.9,11.9c-8.7,74.3-71.9,132-148.5,132c-41.1,0-78.3-16.6-105.3-43.4c-5.9-5.9-11.4-12.3-16.2-19.1
				c-1.1-1.5-2.1-2.9-3.1-4.4c-1.2-1.8-2.3-3.5-3.4-5.3c33.1-36.6,119.9-108.8,277.2-88.1C429.2,244.6,429.3,248.2,429.3,251.9z"/>
			
				<linearGradient id="SVGID_00000064333942328394465790000013954750095843610556_" gradientUnits="userSpaceOnUse" x1="174.4705" y1="334.4665" x2="428.3087" y2="334.4665">
				<stop  offset="0" style="stop-color:#7BC5FF"/>
				<stop  offset="0.3918" style="stop-color:#4D85FF"/>
				<stop  offset="1" style="stop-color:#001AFF"/>
			</linearGradient>
			<path style="opacity:0.3;fill:url(#SVGID_00000064333942328394465790000013954750095843610556_);" d="M428.3,269.4
				c-8.7,74.3-71.9,132-148.5,132c-41.1,0-78.3-16.6-105.3-43.4c15-17.9,55.8-57.3,138.9-79C361.3,266.4,400,265.9,428.3,269.4z"/>
			
				<linearGradient id="SVGID_00000116924839627197792980000016024456813844938659_" gradientUnits="userSpaceOnUse" x1="303.0908" y1="293.358" x2="303.0908" y2="395.1465">
				<stop  offset="0" style="stop-color:#7BC5FF"/>
				<stop  offset="0.3918" style="stop-color:#4D85FF"/>
				<stop  offset="1" style="stop-color:#001AFF"/>
			</linearGradient>
			<path style="fill:url(#SVGID_00000116924839627197792980000016024456813844938659_);" d="M426.1,282.9c-0.9,4.2-1.9,8.3-3.2,12.4
				c-2.3,7.8-5.3,15.3-8.9,22.5c-1.9,3.9-4,7.7-6.3,11.5c-26.2,43.3-73.7,72.2-128,72.2c-12.9,0-25.4-1.6-37.4-4.7
				c-6-1.5-11.9-3.5-17.6-5.7c-3.2-1.3-6.4-2.6-9.5-4.1c-10.5-5-20.3-11.2-29.3-18.4c-2.1-1.7-4.1-3.4-6-5.1
				C216.9,327.1,295.2,272.2,426.1,282.9z"/>
			
				<linearGradient id="SVGID_00000127032063721865269460000008797633160557875597_" gradientUnits="userSpaceOnUse" x1="215.4054" y1="359.4423" x2="414.0409" y2="359.4423">
				<stop  offset="0" style="stop-color:#7BC5FF"/>
				<stop  offset="0.3918" style="stop-color:#4D85FF"/>
				<stop  offset="1" style="stop-color:#001AFF"/>
			</linearGradient>
			<path style="opacity:0.3;fill:url(#SVGID_00000127032063721865269460000008797633160557875597_);" d="M414,317.8
				c-1.9,3.9-4,7.7-6.3,11.5c-26.2,43.3-73.7,72.2-128,72.2c-12.9,0-25.4-1.6-37.4-4.7c-6-1.5-11.9-3.5-17.6-5.7
				c-3.2-1.3-6.4-2.6-9.5-4.1C237.5,367.1,308,313.1,414,317.8z"/>
			
				<linearGradient id="SVGID_00000149347442425143515350000012221574081572017045_" gradientUnits="userSpaceOnUse" x1="316.3223" y1="336.3313" x2="316.3223" y2="397.634">
				<stop  offset="0" style="stop-color:#8965FF"/>
				<stop  offset="0.643" style="stop-color:#B025FF"/>
				<stop  offset="1" style="stop-color:#C700FF"/>
			</linearGradient>
			<path style="fill:url(#SVGID_00000149347442425143515350000012221574081572017045_);" d="M407.8,329.2c-2.3,3.7-4.7,7.4-7.3,10.9
				c-7.4,10.2-16.1,19.3-25.8,27.3c-25.8,21.2-58.9,34-94.9,34c-3.7,0-7.3-0.1-10.9-0.4c-9.1-0.6-17.9-2.1-26.5-4.3
				c-2.5-0.7-5.1-1.4-7.5-2.2c-3.4-1.1-6.7-2.3-10-3.6C261.9,362.1,321.5,331,407.8,329.2z"/>
			<path class="st3" d="M429.3,251.9c0,1.9,0,3.7-0.1,5.5c-24.9-4.7-61.7-7.8-111.2-2c-73.3,8.6-132.4,58.8-159.8,83.5
				c-1.1-1.5-2.1-2.9-3.1-4.4c-1.2-1.8-2.3-3.5-3.4-5.3c33.1-36.6,119.9-108.8,277.2-88.1C429.2,244.6,429.3,248.2,429.3,251.9z"/>
			<path class="st3" d="M426.1,282.9c-0.9,4.2-1.9,8.3-3.2,12.4c-26.7-3.6-59.5-4.4-95.6,2.5c-73.7,14.1-123.2,54-141.2,70.7
				c-2.1-1.7-4.1-3.4-6-5.1C216.9,327.1,295.2,272.2,426.1,282.9z"/>
			<path class="st3" d="M407.8,329.2c-2.3,3.7-4.7,7.4-7.3,10.9c-17.1-0.9-39.6,0.4-66.4,7.4c-48.1,12.6-84.6,36.5-99.2,47
				c-3.4-1.1-6.7-2.3-10-3.6C261.9,362.1,321.5,331,407.8,329.2z"/>
			
				<linearGradient id="SVGID_00000098941821851145725700000017718748021482956445_" gradientUnits="userSpaceOnUse" x1="268.9187" y1="384.3892" x2="374.6995" y2="384.3892">
				<stop  offset="0" style="stop-color:#8965FF"/>
				<stop  offset="0.643" style="stop-color:#B025FF"/>
				<stop  offset="1" style="stop-color:#C700FF"/>
			</linearGradient>
			<path style="opacity:0.3;fill:url(#SVGID_00000098941821851145725700000017718748021482956445_);" d="M374.7,367.4
				c-25.8,21.2-58.9,34-94.9,34c-3.7,0-7.3-0.1-10.9-0.4C285.4,387.9,320.8,366.4,374.7,367.4z"/>
		</g>
		<g>
			
				<linearGradient id="SVGID_00000181051956758133293280000009314781239588365707_" gradientUnits="userSpaceOnUse" x1="53.2937" y1="106.7467" x2="53.2937" y2="404.2931" gradientTransform="matrix(0.9954 9.630000e-02 -9.630000e-02 0.9954 24.7585 -13.4293)">
				<stop  offset="0" style="stop-color:#FFB917"/>
				<stop  offset="0.8559" style="stop-color:#FF7903"/>
				<stop  offset="1" style="stop-color:#FF6E00"/>
			</linearGradient>
			<path style="fill:url(#SVGID_00000181051956758133293280000009314781239588365707_);" d="M40.9,283.2c-1.9-14.1-2.6-28.3-2-42.6
				l24.2,2.3c-0.4,12,0.1,23.9,1.6,35.7L40.9,283.2z"/>
			
				<linearGradient id="SVGID_00000095314227377892155010000016888533523690532517_" gradientUnits="userSpaceOnUse" x1="71.0292" y1="57.4528" x2="71.0292" y2="345.369" gradientTransform="matrix(0.9954 9.630000e-02 -9.630000e-02 0.9954 24.7585 -13.4293)">
				<stop  offset="0" style="stop-color:#FFB917"/>
				<stop  offset="0.8559" style="stop-color:#FF7903"/>
				<stop  offset="1" style="stop-color:#FF6E00"/>
			</linearGradient>
			<path style="fill:url(#SVGID_00000095314227377892155010000016888533523690532517_);" d="M61.3,148.7c6-12.9,13.2-25.2,21.4-36.9
				l19.1,15.1c-6.8,9.8-12.8,20.1-17.9,30.9L61.3,148.7z"/>
			
				<linearGradient id="SVGID_00000058564431399198109790000003687629699867069579_" gradientUnits="userSpaceOnUse" x1="105.9338" y1="169.584" x2="105.9338" y2="449.0518" gradientTransform="matrix(0.9954 9.630000e-02 -9.630000e-02 0.9954 24.7585 -13.4293)">
				<stop  offset="0" style="stop-color:#FFB917"/>
				<stop  offset="0.8559" style="stop-color:#FF7903"/>
				<stop  offset="1" style="stop-color:#FF6E00"/>
			</linearGradient>
			<path style="fill:url(#SVGID_00000058564431399198109790000003687629699867069579_);" d="M96.5,407.2
				c-9.2-10.8-17.5-22.4-24.7-34.7l21.6-11.1c6.1,10.3,13,20,20.7,29.1L96.5,407.2z"/>
			
				<linearGradient id="SVGID_00000119076794221155814850000014690860329165234315_" gradientUnits="userSpaceOnUse" x1="154.4912" y1="16.9079" x2="154.4912" y2="287.7417" gradientTransform="matrix(0.9954 9.630000e-02 -9.630000e-02 0.9954 24.7585 -13.4293)">
				<stop  offset="0" style="stop-color:#FFB917"/>
				<stop  offset="0.8559" style="stop-color:#FF7903"/>
				<stop  offset="1" style="stop-color:#FF6E00"/>
			</linearGradient>
			<path style="fill:url(#SVGID_00000119076794221155814850000014690860329165234315_);" d="M151.1,46.6c12-7.6,24.7-14.2,37.9-19.6
				l8,23c-11,4.6-21.6,10.1-31.7,16.4L151.1,46.6z"/>
			
				<linearGradient id="SVGID_00000039127620065380217630000002129260297913815718_" gradientUnits="userSpaceOnUse" x1="453.2877" y1="169.5244" x2="453.2877" y2="449.0103" gradientTransform="matrix(0.9954 9.630000e-02 -9.630000e-02 0.9954 24.7585 -13.4293)">
				<stop  offset="0" style="stop-color:#FFB917"/>
				<stop  offset="0.8559" style="stop-color:#FF7903"/>
				<stop  offset="1" style="stop-color:#FF6E00"/>
			</linearGradient>
			<path style="fill:url(#SVGID_00000039127620065380217630000002129260297913815718_);" d="M416.3,419.6c9.3-7.5,18-15.7,25.9-24.6
				l19.1,15.1c-9.4,10.7-19.7,20.5-30.9,29.4L416.3,419.6z"/>
			
				<linearGradient id="SVGID_00000117674817854082375110000005024315340861919931_" gradientUnits="userSpaceOnUse" x1="404.246" y1="16.7851" x2="404.246" y2="287.5576" gradientTransform="matrix(0.9954 9.630000e-02 -9.630000e-02 0.9954 24.7585 -13.4293)">
				<stop  offset="0" style="stop-color:#FFB917"/>
				<stop  offset="0.8559" style="stop-color:#FF7903"/>
				<stop  offset="1" style="stop-color:#FF6E00"/>
			</linearGradient>
			<path style="fill:url(#SVGID_00000117674817854082375110000005024315340861919931_);" d="M427.9,91.6
				c-8.7-8.1-18.1-15.5-28.1-22.1l12.2-21c11.9,7.8,23.1,16.6,33.5,26.4L427.9,91.6z"/>
			
				<linearGradient id="SVGID_00000036967115008143932980000016903998821217618111_" gradientUnits="userSpaceOnUse" x1="213.6308" y1="218.9423" x2="213.6308" y2="478.9429" gradientTransform="matrix(0.9954 9.630000e-02 -9.630000e-02 0.9954 24.7585 -13.4293)">
				<stop  offset="0" style="stop-color:#FFB917"/>
				<stop  offset="0.8559" style="stop-color:#FF7903"/>
				<stop  offset="1" style="stop-color:#FF6E00"/>
			</linearGradient>
			<path style="fill:url(#SVGID_00000036967115008143932980000016903998821217618111_);" d="M210.4,481.7c-4.3-1.3-8.6-2.7-12.8-4.2
				c-9.2-3.3-18.2-7.2-26.9-11.7l12.2-21c7.4,3.7,15.1,7.1,22.9,9.9c3.4,1.2,6.8,2.4,10.2,3.4L210.4,481.7z"/>
			
				<linearGradient id="SVGID_00000119105515032833040710000014739642924363861163_" gradientUnits="userSpaceOnUse" x1="345.6439" y1="218.9136" x2="345.6439" y2="478.9212" gradientTransform="matrix(0.9954 9.630000e-02 -9.630000e-02 0.9954 24.7585 -13.4293)">
				<stop  offset="0" style="stop-color:#FFB917"/>
				<stop  offset="0.8559" style="stop-color:#FF7903"/>
				<stop  offset="1" style="stop-color:#FF6E00"/>
			</linearGradient>
			<path style="fill:url(#SVGID_00000119105515032833040710000014739642924363861163_);" d="M303.3,466.5
				c11.9-1.3,23.6-3.5,35.1-6.7l7.9,23c-13.7,3.9-27.7,6.6-41.9,8L303.3,466.5z"/>
			
				<linearGradient id="SVGID_00000036973250272722093960000004596941118677154998_" gradientUnits="userSpaceOnUse" x1="279.3128" y1="1.0883" x2="279.3128" y2="241.5414" gradientTransform="matrix(0.9954 9.630000e-02 -9.630000e-02 0.9954 24.7585 -13.4293)">
				<stop  offset="0" style="stop-color:#FFB917"/>
				<stop  offset="0.8559" style="stop-color:#FF7903"/>
				<stop  offset="1" style="stop-color:#FF6E00"/>
			</linearGradient>
			<path style="fill:url(#SVGID_00000036973250272722093960000004596941118677154998_);" d="M281.8,9.3c7.2,0.1,14.4,0.4,21.5,1.1
				c7,0.7,14,1.7,20.9,2.9l-5.7,23.6c-5.8-1-11.6-1.8-17.5-2.4c-6-0.6-12.1-0.9-18.1-1L281.8,9.3z"/>
		</g>
	</g>
</g>
</svg>
